<?xml version="1.0" standalone="no"?>
<!DOCTYPE svg PUBLIC "-//W3C//DTD SVG 1.1//EN" "http://www.w3.org/Graphics/SVG/1.1/DTD/svg11.dtd">
<svg xmlns="http://www.w3.org/2000/svg">
<metadata>Generated by Fontastic.me</metadata>
<defs>
<font id="thundra" horiz-adv-x="512">
<font-face font-family="thundra" units-per-em="512" ascent="480" descent="-32"/>
<missing-glyph horiz-adv-x="512" />

<glyph glyph-name="02-graphic" unicode="&#57344;" d="M188 305l47 0 0-166-47 0z m-90-47l47 0 0-117-47 0z m179 115l47 0 0-234-47 0z m90-106l47 0 0-128-47 0z"/>
<glyph glyph-name="03-arrow-down" unicode="&#57345;" d="M256 147l-166 167 27 27 139-138 139 138 27-27z"/>
<glyph glyph-name="04-arrow-top" unicode="&#57346;" d="M256 341l-166-166 27-28 139 139 139-139 27 28z"/>
<glyph glyph-name="05-arrow-left" unicode="&#57347;" d="M145 243l169-166 27 28-138 138 138 141-27 28z"/>
<glyph glyph-name="06-arrow-right" unicode="&#57348;" d="M354 243l-168-166-28 28 139 138-139 141 28 28z"/>
<glyph glyph-name="07-arrow-2-left" unicode="&#57349;" d="M233 407l27-27-104-105 277 0 0-38-277 0 104-105-27-27-154 151z"/>
<glyph glyph-name="08-arrow-2-right" unicode="&#57350;" d="M279 407l-27-27 104-105-277 0 0-38 277 0-104-105 27-27 154 151z"/>
<glyph glyph-name="09-tick" unicode="&#57351;" d="M226 122l-119 125 40 41 81-85 162 153 41-40z"/>
<glyph glyph-name="12-circle-exclamation" unicode="&#57352;" d="M256 388c-77 0-139-62-139-138 0-77 62-139 139-139 77 0 139 62 139 139 0 76-62 138-139 138z m15-232l-30 0 0 30 30 0z m0 55l-30 0 0 135 30 0z"/>
<glyph glyph-name="13-close" unicode="&#57353;" d="M395 348l-28 30-98-99-98 99-30-30 98-98-98-99 30-29 98 98 98-98 28 29-98 99z"/>
<glyph glyph-name="14-api-key" unicode="&#57354;" d="M405 141l-79 79c0 0 0 0-2 0l-77 77c7 12 13 25 13 40 0 45-36 81-81 81-45 0-79-36-79-81 0-45 37-81 81-81 13 0 26 4 39 11l64-64-37-32c-8-9-8-22 0-30 9-9 22-9 30 0l34 34 22-21-13-11c-9-9-9-21 0-30 4-4 11-6 15-6 6 0 11 2 15 6l13 13 12-13c5-4 11-6 15-6 5 0 11 2 15 6 9 6 9 19 0 28z m-262 196c0 21 17 38 38 38 22 0 39-17 39-38 0-21-19-36-39-36-19 0-38 17-38 36z"/>
<glyph glyph-name="15-delete" unicode="&#57355;" d="M222 132c-9 0-17 7-17 17l0 141c0 9 6 17 17 17 11 0 17-6 17-17l0-141c-2-10-9-17-17-17z m64 0c-9 0-17 7-17 17l0 141c0 9 6 17 17 17 11 0 17-6 17-17l0-141c-2-10-9-17-17-17z m-169 271l81 0 0 26c0 8 7 17 17 17l77 0c9 0 17-7 17-17l0-28 81 0c9 0 17-6 17-17l0-43c0-8-6-17-17-17l-19 0 0-234c0-9-6-17-17-17l-203 0c-8 0-17 6-17 17l0 234-17 0c-10 2-17 11-17 19l0 43c0 9 7 17 17 17z m158 11l-45 0 0-11 45 0z m-106-305l170 0 0 217-170 0z m-37 249l241 0 0 13-241 0z"/>
<glyph glyph-name="16-plus" unicode="&#57356;" d="M367 273l-98 0 0 96c0 9-7 17-17 17-11 0-17-6-17-17l0-98-94 0c-9 0-17-6-17-17 0-11 6-17 17-17l98 0 0-98c0-9 6-17 17-17 11 0 17 6 17 17l0 98 98 0c9 0 17 6 17 17 0 11-13 19-21 19z"/>
<glyph glyph-name="17-chart" unicode="&#57357;" d="M397 143l-303 0 0 215 43 0 0-172 260 0z m-209 64l-30 30 68 70 34-34 60 58 43-43-30-30-13 13-60-60-34 34z"/>
<glyph glyph-name="18-triangle-exclamation" unicode="&#57358;" d="M337 243l-81 143-162-286 326 0z m-66-106l-30 0 0 29 30 0z m0 51l-30 0 0 115 30 0z"/>
<glyph glyph-name="19-circle-information" unicode="&#57359;" d="M256 388c-77 0-139-62-139-138 0-77 62-139 139-139 77 0 139 62 139 139 0 76-62 138-139 138z m15-228l-30 0 0 132 30 0z m0 147l-30 0 0 30 30 0z"/>
<glyph glyph-name="20-circle-tick" unicode="&#57360;" d="M256 388c-77 0-139-62-139-138 0-77 62-139 139-139 77 0 139 62 139 139 0 76-62 138-139 138z m-17-205l-56 56 20 19 38-38 85 85 20-19z"/>
<glyph glyph-name="01-function" unicode="&#57361;" d="M373 207l-27 30-32-32-30 32-28-30 30-30-30-32 28-28 30 32 32-32 27 28-30 32z m-100 98l-45 0 0 53c0 7 7 13 13 13 6 0 13-6 13-13l0-29 40 0 0 29c0 28-23 52-51 52-28 0-53-22-53-52l0-53-21 0 0-40 21 0 0-105c0-6-7-13-13-13l-13 0 0-40 13 0c28 0 51 23 51 51l0 104 45 0z"/>
<glyph glyph-name="21-search" unicode="&#57362;" d="M414 134l-88 88c15 21 24 47 24 75 0 70-58 130-130 130-71 0-128-58-128-130 0-71 57-131 130-131 28 0 53 9 75 24l87-88c4-4 11-6 15-6 4 0 11 2 15 6 8 11 8 24 0 32z m-280 163c0 49 39 87 88 87 47 0 87-38 87-87 0-50-38-88-87-88-49 2-88 41-88 88z"/>
<glyph glyph-name="22-reset" unicode="&#57363;" d="M243 303l71 70-73 73-30-30 19-19-29 0c-43 0-75-34-75-75l0-130c0-43 34-75 75-75l0 43c-18 0-32 15-32 32l0 130c0 17 14 32 32 32l32 0-20-19z m90 94l0-43c17 0 32-15 32-32l0-130c0-17-15-32-32-32l-32 0 19 19-30 30-70-70 72-73 30 30-19 19 30 0c42 0 74 34 74 75l0 132c3 41-32 75-74 75z"/>
<glyph glyph-name="23-copy" unicode="&#57364;" d="M326 113l-228 0 0 220 228 0z m-185 43l143 0 0 134-143 0z m256 49l-43 0 0 156-164 0 0 42 207 0z"/>
</font>
</defs>
</svg>
